<svg xmlns="http://www.w3.org/2000/svg" version="1.1" xmlns:xlink="http://www.w3.org/1999/xlink" xmlns:svgjs="http://svgjs.dev/svgjs" width="128" height="128" viewBox="0 0 128 128"><g transform="matrix(0.8046875,0,0,0.8046875,12.760752631578946,27.31748491594376)"><svg viewBox="0 0 95 68" data-background-color="#ffffff" preserveAspectRatio="xMidYMid meet" height="91" width="128" xmlns="http://www.w3.org/2000/svg" xmlns:xlink="http://www.w3.org/1999/xlink"><g id="tight-bounds" transform="matrix(1,0,0,1,-0.24049999999999727,0.06429225345412704)"><svg viewBox="0 0 95.48099999999998 67.87141549309173" height="67.87141549309173" width="95.48099999999998"><g><svg viewBox="0 0 95.48099999999998 67.87141549309173" height="67.87141549309173" width="95.48099999999998"><g><svg viewBox="0 0 95.48099999999998 67.87141549309173" height="67.87141549309173" width="95.48099999999998"><g id="textblocktransform"><svg viewBox="0 0 95.48099999999998 67.87141549309173" height="67.87141549309173" width="95.48099999999998" id="textblock"><g><svg viewBox="0 0 95.48099999999998 67.87141549309173" height="67.87141549309173" width="95.48099999999998"><g><svg viewBox="0 0 95.48099999999998 67.87141549309173" height="67.87141549309173" width="95.48099999999998"><g><svg xmlns="http://www.w3.org/2000/svg" xmlns:xlink="http://www.w3.org/1999/xlink" version="1.1" x="0" y="0" viewBox="4.621 17.742867059184317 90.75800000000001 64.51413294081567" enable-background="new 0 0 100 100" xml:space="preserve" height="67.87141549309173" width="95.48099999999998" class="icon-icon-0" data-fill-palette-color="accent" id="icon-0"><path d="M95.379 35.973L95.33 34.96c-0.029-0.592-0.234-2.096-1.531-3.263-0.898-0.808-2.066-1.219-3.299-1.142-1.719 0.106-2.445-0.252-2.563-0.384-0.088-0.102-0.273-0.648-0.115-1.854l1.898-3.942c0.959-1.648 0.689-3.797-0.775-5.257-1.133-1.133-2.545-1.45-3.721-1.361H34.027c-5.111 0-10.105 3.982-12.209 7.729L5.863 55.702v0.001c-0.787 1.4-1.242 3.012-1.242 4.73v12.136c0 5.342 4.346 9.688 9.688 9.688h55.549c3.254 0 4.301-1.71 4.635-2.936L95.379 35.973zM28.816 29.365c1.115-1.947 3.785-3.607 5.211-3.607h46.148L68.137 50.746H17.527L28.816 29.365zM54.324 74.257H14.309c-0.93 0-1.688-0.757-1.688-1.688V60.434c0-0.931 0.758-1.688 1.688-1.688h40.016c-1.314 2.285-2.068 4.935-2.068 7.756S53.008 71.972 54.324 74.257z" fill="#000000" data-fill-palette-color="accent"></path></svg></g></svg></g></svg></g></svg></g></svg></g><g></g></svg></g><defs></defs></svg><rect width="95.48099999999998" height="67.87141549309173" fill="none" stroke="none" visibility="hidden"></rect></g></svg></g></svg>